<svg id="visual" viewBox="0 0 900 600" width="900" height="600" xmlns="http://www.w3.org/2000/svg" xmlns:xlink="http://www.w3.org/1999/xlink" version="1.1"><g><g transform="translate(203 414)"><path d="M80.8 -64.7C105 -34.1 125.1 -0.5 118.8 27.2C112.6 54.9 80 76.6 46.1 91.2C12.2 105.8 -23 113.3 -50.3 101.4C-77.6 89.4 -97 58 -107.3 21.9C-117.6 -14.2 -118.7 -54.9 -99.3 -84.4C-79.9 -113.8 -40 -132 -5.8 -127.4C28.3 -122.7 56.6 -95.2 80.8 -64.7Z" stroke="#0066FF" fill="none" stroke-width="20"></path></g><g transform="translate(790 149)"><path d="M98.2 -72.4C122.6 -47.7 134.6 -7.1 125.7 27.6C116.9 62.3 87.3 91.1 52.1 108C16.8 124.9 -24.1 130 -49.8 113.7C-75.5 97.4 -85.9 59.7 -93.3 22.6C-100.7 -14.4 -105 -50.8 -89 -73.5C-72.9 -96.3 -36.5 -105.4 0.2 -105.5C36.9 -105.7 73.8 -97 98.2 -72.4Z" stroke="#0066FF" fill="none" stroke-width="20"></path></g><g transform="translate(358 62)"><path d="M73.8 -65.8C89.3 -39.4 91.2 -9.1 83.7 17.4C76.3 43.9 59.7 66.6 34.6 82.8C9.6 99.1 -23.8 109 -48.1 98C-72.4 87 -87.5 55.2 -96.2 20.9C-104.8 -13.4 -107.1 -50.3 -90 -77.1C-72.9 -103.9 -36.4 -120.6 -3.7 -117.6C29.1 -114.7 58.3 -92.2 73.8 -65.8Z" stroke="#0066FF" fill="none" stroke-width="20"></path></g></g></svg>