<svg id="visual" viewBox="0 0 900 600" width="900" height="600" xmlns="http://www.w3.org/2000/svg" xmlns:xlink="http://www.w3.org/1999/xlink" version="1.1"><path d="M0 370L21.5 382.8C43 395.7 86 421.3 128.8 426.5C171.7 431.7 214.3 416.3 257.2 406.2C300 396 343 391 385.8 390.8C428.7 390.7 471.3 395.3 514.2 404.8C557 414.3 600 428.7 642.8 427.7C685.7 426.7 728.3 410.3 771.2 407.8C814 405.3 857 416.7 878.5 422.3L900 428L900 601L878.5 601C857 601 814 601 771.2 601C728.3 601 685.7 601 642.8 601C600 601 557 601 514.2 601C471.3 601 428.7 601 385.8 601C343 601 300 601 257.2 601C214.3 601 171.7 601 128.8 601C86 601 43 601 21.5 601L0 601Z" fill="#0066ff"></path><path d="M0 400L21.5 400.2C43 400.3 86 400.7 128.8 412C171.7 423.3 214.3 445.7 257.2 456C300 466.3 343 464.7 385.8 456.2C428.7 447.7 471.3 432.3 514.2 423.2C557 414 600 411 642.8 414.3C685.7 417.7 728.3 427.3 771.2 426.2C814 425 857 413 878.5 407L900 401L900 601L878.5 601C857 601 814 601 771.2 601C728.3 601 685.7 601 642.8 601C600 601 557 601 514.2 601C471.3 601 428.7 601 385.8 601C343 601 300 601 257.2 601C214.3 601 171.7 601 128.8 601C86 601 43 601 21.5 601L0 601Z" fill="#0853ea"></path><path d="M0 485L21.5 486.3C43 487.7 86 490.3 128.8 484.7C171.7 479 214.3 465 257.2 457C300 449 343 447 385.8 456.7C428.7 466.3 471.3 487.7 514.2 493.8C557 500 600 491 642.8 480.7C685.7 470.3 728.3 458.7 771.2 454.7C814 450.7 857 454.3 878.5 456.2L900 458L900 601L878.5 601C857 601 814 601 771.2 601C728.3 601 685.7 601 642.8 601C600 601 557 601 514.2 601C471.3 601 428.7 601 385.8 601C343 601 300 601 257.2 601C214.3 601 171.7 601 128.8 601C86 601 43 601 21.5 601L0 601Z" fill="#0e3fd5"></path><path d="M0 496L21.5 499.8C43 503.7 86 511.3 128.8 512.3C171.7 513.3 214.3 507.7 257.2 511.2C300 514.7 343 527.3 385.8 525C428.7 522.7 471.3 505.3 514.2 504.7C557 504 600 520 642.8 521.7C685.7 523.3 728.3 510.7 771.2 502.8C814 495 857 492 878.5 490.5L900 489L900 601L878.5 601C857 601 814 601 771.2 601C728.3 601 685.7 601 642.8 601C600 601 557 601 514.2 601C471.3 601 428.7 601 385.8 601C343 601 300 601 257.2 601C214.3 601 171.7 601 128.8 601C86 601 43 601 21.5 601L0 601Z" fill="#112ac0"></path><path d="M0 574L21.5 572C43 570 86 566 128.8 563.3C171.7 560.7 214.3 559.3 257.2 559C300 558.7 343 559.3 385.8 558.3C428.7 557.3 471.3 554.7 514.2 550.8C557 547 600 542 642.8 541.7C685.7 541.3 728.3 545.7 771.2 545.2C814 544.7 857 539.3 878.5 536.7L900 534L900 601L878.5 601C857 601 814 601 771.2 601C728.3 601 685.7 601 642.8 601C600 601 557 601 514.2 601C471.3 601 428.7 601 385.8 601C343 601 300 601 257.2 601C214.3 601 171.7 601 128.8 601C86 601 43 601 21.5 601L0 601Z" fill="#1111ab"></path></svg>